STARTFONT 2.1
COMMENT Created by fdbbdf
FONT sym8
SIZE 8 78 78
FONTBOUNDINGBOX 11 9 0 -3
STARTPROPERTIES 4
Ownership "  "
FONT_ASCENT 6
FONT_DESCENT 3
DEFAULT_CHAR 37
ENDPROPERTIES
CHARS 20
STARTCHAR %
ENCODING -1 37
SWIDTH 0 0
DWIDTH 11 0
BBX 10 5 1 -1
BITMAP
7180
8a40
8440
8a40
7180
ENDCHAR
STARTCHAR '
ENCODING -1 39
SWIDTH 0 0
DWIDTH 4 0
BBX 3 5 1 -1
BITMAP
2000
2000
4000
4000
8000
ENDCHAR
STARTCHAR *
ENCODING -1 42
SWIDTH 0 0
DWIDTH 6 0
BBX 5 5 1 -1
BITMAP
8800
5000
2000
5000
8800
ENDCHAR
STARTCHAR +
ENCODING -1 43
SWIDTH 0 0
DWIDTH 6 0
BBX 5 5 1 -1
BITMAP
2000
2000
f800
2000
2000
ENDCHAR
STARTCHAR -
ENCODING -1 45
SWIDTH 0 0
DWIDTH 6 0
BBX 5 1 1 1
BITMAP
f800
ENDCHAR
STARTCHAR /
ENCODING -1 47
SWIDTH 0 0
DWIDTH 6 0
BBX 5 5 1 -1
BITMAP
2000
0000
f800
0000
2000
ENDCHAR
STARTCHAR <
ENCODING -1 60
SWIDTH 0 0
DWIDTH 7 0
BBX 6 5 1 -1
BITMAP
0c00
3000
c000
3000
0c00
ENDCHAR
STARTCHAR =
ENCODING -1 61
SWIDTH 0 0
DWIDTH 6 0
BBX 5 3 1 0
BITMAP
f800
0000
f800
ENDCHAR
STARTCHAR >
ENCODING -1 62
SWIDTH 0 0
DWIDTH 7 0
BBX 6 5 1 -1
BITMAP
c000
3000
0c00
3000
c000
ENDCHAR
STARTCHAR I
ENCODING -1 73
SWIDTH 0 0
DWIDTH 8 0
BBX 6 8 1 -3
BITMAP
0c00
1400
1000
1000
2000
2000
a000
c000
ENDCHAR
STARTCHAR S
ENCODING -1 83
SWIDTH 0 0
DWIDTH 7 0
BBX 6 8 1 -3
BITMAP
fc00
4400
2000
1000
2000
4000
8400
fc00
ENDCHAR
STARTCHAR \
ENCODING -1 92
SWIDTH 0 0
DWIDTH 6 0
BBX 5 7 1 -2
BITMAP
2000
2000
2000
2000
a800
7000
2000
ENDCHAR
STARTCHAR ]
ENCODING -1 93
SWIDTH 0 0
DWIDTH 8 0
BBX 7 5 1 -1
BITMAP
0800
0400
fe00
0400
0800
ENDCHAR
STARTCHAR ^
ENCODING -1 94
SWIDTH 0 0
DWIDTH 6 0
BBX 5 7 1 -2
BITMAP
2000
7000
a800
2000
2000
2000
2000
ENDCHAR
STARTCHAR _
ENCODING -1 95
SWIDTH 0 0
DWIDTH 8 0
BBX 7 5 1 -1
BITMAP
2000
4000
fe00
4000
2000
ENDCHAR
STARTCHAR g
ENCODING -1 103
SWIDTH 0 0
DWIDTH 7 0
BBX 6 6 1 -2
BITMAP
c000
3000
0c00
3000
c000
fc00
ENDCHAR
STARTCHAR l
ENCODING -1 108
SWIDTH 0 0
DWIDTH 7 0
BBX 6 6 1 -2
BITMAP
0c00
3000
c000
3000
0c00
fc00
ENDCHAR
STARTCHAR m
ENCODING -1 109
SWIDTH 0 0
DWIDTH 6 0
BBX 5 6 1 -2
BITMAP
f800
2000
2000
f800
2000
2000
ENDCHAR
STARTCHAR p
ENCODING -1 112
SWIDTH 0 0
DWIDTH 6 0
BBX 5 6 1 -2
BITMAP
2000
2000
f800
2000
2000
f800
ENDCHAR
STARTCHAR z
ENCODING -1 122
SWIDTH 0 0
DWIDTH 7 0
BBX 6 9 1 -3
BITMAP
0000
4800
1000
2000
4800
1000
2000
4800
0000
ENDCHAR
ENDFONT
